PathFileType	4	(X/Y/Z)	Patient4_TMGait_0pt2_03_left_18.trc.trc
DataRate	CameraRate	NumFrames	NumMarkers	Units	OrigDataRate	OrigDataStartFrame	OrigNumFrames
46.822742474916	46.822742474916	5	33	mm	46.822742474916	89	       141
Frame#	Time	Sacral			L.Shoulder			Chest			R.Shoulder			Neck			R.ASIS			L.ASIS			R.Thigh.Superior			R.Thigh.Lateral			R.Thigh.Inferior			R.Patella			L.Thigh.Superior			L.Thigh.Lateral			L.Thigh.Inferior			L.Patella			L.Shank.Superior			L.Shank.Lateral			L.Shank.Inferior			R.Shank.Superior			R.Shank.Lateral			R.Shank.Inferior			R.Heel			R.Midfoot.Superior			R.Midfoot.Lateral			R.Toe			L.Heel			L.Midfoot.Lateral			L.Midfoot.Superior			L.Toe			L.Elbow			L.Wrist			R.Elbow			R.Wrist			
		X1	Y1	Z1	X2	Y2	Z2	X3	Y3	Z3	X4	Y4	Z4	X5	Y5	Z5	X6	Y6	Z6	X7	Y7	Z7	X8	Y8	Z8	X9	Y9	Z9	X10	Y10	Z10	X11	Y11	Z11	X12	Y12	Z12	X13	Y13	Z13	X14	Y14	Z14	X15	Y15	Z15	X16	Y16	Z16	X17	Y17	Z17	X18	Y18	Z18	X19	Y19	Z19	X20	Y20	Z20	X21	Y21	Z21	X22	Y22	Z22	X23	Y23	Z23	X24	Y24	Z24	X25	Y25	Z25	X26	Y26	Z26	X27	Y27	Z27	X28	Y28	Z28	X29	Y29	Z29	X30	Y30	Z30	X31	Y31	Z31	X32	Y32	Z32	X33	Y33	Z33	

89	39.419428571429	805.573234344143	1016.885424817498	508.152017203720	1036.214986155147	1441.231268992598	368.462592009211	1098.667067391507	1366.084176501158	543.283711000652	987.004187924880	1445.286537628735	698.160255438450	975.534310939602	1497.799923214146	519.674662764948	1016.665715257971	942.377723299367	652.938141782455	1035.809687965240	965.150991666822	380.082667970627	1064.158227002449	743.335245081846	618.587708637418	982.524924950142	632.960091426694	675.248997892377	1063.253383794961	582.393178713610	596.937877144011	1067.285045226095	495.809857162716	603.241083175457	1040.627246002062	735.956696527634	391.891809799167	927.265003460517	630.068029903554	311.762163510487	1007.536968077206	544.190141675022	370.610658375578	997.023394525447	471.331550819266	369.079507011332	948.362546179058	411.227530447596	356.557403067075	829.843098875219	328.895824974812	301.081509598541	854.462549739349	200.054604570396	354.664718434778	1038.886805681322	406.673609017838	611.290541889909	967.942311486236	303.536094140887	675.097126533263	1010.517545505530	207.710016395151	612.660115561501	877.634264837869	42.913924530549	587.618197703139	1049.060022334308	97.328362661230	620.790618523898	962.215570419267	36.761494778575	660.904204707254	1170.001737059838	46.460867062027	645.852529040577	696.040860719622	68.054890961571	388.420048765489	767.451597975412	51.748135431147	307.941675721578	859.412835244151	101.376289230890	331.121429763125	976.938693905285	37.319072431804	301.086587670613	1101.536889214352	1113.286953292374	216.441659552195	1355.630031892847	1076.004362655534	242.961001646464	814.130497283518	1144.124030070640	793.556802179455	798.959175643186	882.939330973209	814.827022533420	
90	39.440785714286	805.805858922867	1017.938890236701	515.595968635706	1034.857227255099	1441.385303672817	371.532288592029	1099.802449530713	1366.628808332191	545.662956941586	990.344002742107	1446.097777209567	701.866602557562	976.613540000355	1498.604427024328	523.288776800977	1018.401826847319	943.007131399997	657.709034489646	1034.458687296152	965.684772368819	384.484008668085	1062.924678392108	742.712063135260	622.728115078598	980.100447879004	633.070639418567	679.349972687665	1059.422066670808	581.922988737125	600.163769398590	1062.474787063033	495.673628137775	605.903148764106	1041.961555961424	737.605045599524	395.328415079735	929.929818682994	630.863088871084	315.299889525304	1012.731363865323	545.393854979999	372.479447838318	1003.066769573708	471.564908755108	369.850607651672	952.577189454411	412.046147987408	357.546114189045	832.016178204297	332.427687516275	302.541859990227	854.905618297578	202.588605118253	354.345319921407	1034.294432220577	406.757704854684	613.571234805161	963.516230233363	303.196518835074	676.715982992527	1006.145969949520	207.764958085094	613.599370661683	873.384071743962	42.876674396616	587.675456067577	1044.786995652528	97.265659141174	620.930719485002	957.960477100006	36.734829796376	660.919495500761	1165.739853127754	46.360308057349	645.932556941103	693.834069655235	74.268652357576	387.952394826244	764.572012035908	55.177596284167	307.634763554227	857.958322010033	102.412830129372	330.151052968281	973.060547851239	37.090370481514	301.019135152231	1090.201556227269	1109.530031591653	221.946544802145	1340.387538568586	1050.787640970044	246.664013600540	821.390597272275	1143.504002636983	801.911184888183	809.808547557947	882.419283203653	825.792273153838	
91	39.462142857143	805.926925560569	1018.721839661774	523.067926478105	1033.041487142454	1441.259437706186	374.341982405588	1100.648453257297	1367.024340740978	547.741810072738	993.470078532460	1446.728978289039	705.288350044715	977.396066557009	1499.212619387883	526.646902860072	1020.107489546828	943.470993982444	662.363693010590	1032.953171243277	966.134376813595	388.833874264482	1062.032984402823	742.130049249478	626.626808275905	978.348632878974	633.030365478775	683.305705144177	1056.292614377515	581.438099544888	603.191564555928	1058.522831306567	495.399274654732	608.442558737177	1043.842815800354	739.450217669185	398.774476826108	933.609952409274	631.559686408942	318.736938937394	1019.128283519504	546.784432574895	374.356378819997	1010.412633098829	471.872827204841	370.534893100601	958.037926528203	412.857572065817	358.438720253212	835.362818162705	336.245978358148	303.899136433845	856.152211745699	205.436133243712	353.925373641906	1030.353450496037	406.703864642205	615.719749300065	959.618160495977	302.841195489816	678.255725274910	1002.049994021868	207.738269465565	614.446272498228	869.104434447794	42.886033021922	587.710403284528	1040.511364258774	97.193504089984	621.032752761790	953.675220493535	36.728700166177	660.908032721006	1161.465094476795	46.174163217980	646.001046504577	692.231392342120	81.521570034255	387.412569594230	762.071600472437	59.330973786073	307.269915449869	856.986872677940	103.666885143658	329.098007559988	969.192591941181	36.810882006031	300.966682945751	1078.362724488577	1105.628318247171	227.707197969039	1322.084347849696	1024.108541519009	250.262787211323	829.574219689028	1142.095017299580	809.967764252551	822.126421291802	881.096441870858	836.319991662216	
92	39.483500000000	805.915535158034	1019.149607109539	530.540713885554	1030.774223218447	1440.776126849443	376.927262004517	1101.193461774473	1367.177981665051	549.549934011273	996.378438291672	1447.095885746296	708.454287659328	977.862976186535	1499.541123735772	529.774362236847	1021.772962269270	943.708218730328	666.899746899750	1031.255333481153	966.430072718628	393.141309954495	1061.617543072542	741.589576690710	630.281289247383	977.458806012071	632.779733408260	687.076944862118	1054.128731190094	580.927200633138	606.009490460226	1055.733886368570	494.917382812320	610.844090028718	1046.250781956834	741.474407507368	402.274168152336	938.323052299090	632.155302142351	322.072292320534	1026.693104343860	548.386916236967	376.317309195753	1019.028002715506	472.293924832787	371.218314893700	964.755468496193	413.666266773283	359.298688066210	839.922270815472	340.363832860157	305.196766996949	858.235245781221	208.639540620169	353.479385720369	1027.292305839597	406.442586527916	617.709816592790	956.421676343586	302.441565884402	679.705592765003	998.328671695489	207.586969572721	615.186215140428	864.811603120123	42.937321216093	587.728792786018	1036.247669771994	97.113638368827	621.099760379036	949.375239061767	36.742406550575	660.879263978284	1157.192931842963	45.907027174250	646.065230981241	691.332444023532	89.911624878892	386.875301840970	760.015822819291	64.357967325249	306.904212438182	856.519213152009	105.228908237337	328.046286754114	965.322444493981	36.435662214041	300.941157100147	1066.149443848736	1101.535295747774	233.804749411671	1300.500920459159	996.410460421355	253.735029484499	838.796667162209	1139.800490766889	817.694593507787	836.085280525826	878.891539963818	846.324820446449	
93	39.504857142857	805.746170061862	1019.132437376438	537.973578443463	1028.075040897786	1439.858144114555	379.326230515209	1101.430642163309	1366.987838192147	551.118288451201	999.073517444717	1447.109828405908	711.395837813522	978.006541810687	1499.502838807012	532.700271259888	1023.379967271799	943.651153883126	671.302769294403	1029.320852919062	966.488776219849	397.402661086361	1061.777848912860	741.072180928268	633.682658188263	977.571355069267	632.253360941934	690.615573958729	1053.140749089077	580.369578254975	608.597972476258	1054.345543329891	494.160408021463	613.080438652638	1049.140836114188	743.646603508115	405.868797506295	944.061678156676	632.644351435612	325.311179024812	1035.356540234446	550.215848027977	378.449280555135	1028.849090404249	472.858768555104	372.003534459228	972.701121733724	414.473381500314	360.207459866440	845.693919128665	344.783516549232	306.504255447571	861.160446679705	212.230327404662	353.109521609546	1025.290600324539	405.904641684561	619.510169873491	954.057647170374	301.965307325138	681.045280968783	995.058472329718	207.269368138628	615.803750474238	860.521256330486	43.024935908563	587.735265544938	1032.007665675906	97.025532228219	621.132724059933	945.075315803941	36.773746488531	660.840374904151	1152.936187369334	45.567717996997	646.130343764408	691.219237699148	99.490890072433	386.452794077212	758.460228867919	70.387691252353	306.623794293452	856.557848703153	107.198090743428	327.104500506760	961.438992321194	35.924242124852	300.956955371301	1053.661144249733	1097.209077239954	240.280894219433	1275.516681166168	968.255773451182	257.079942571079	849.132700211472	1136.567452040372	825.058646434952	851.852089304016	875.788709189215	855.721256498708	
